<svg width="24" height="24" viewBox="0 0 24 24" fill="none" xmlns="http://www.w3.org/2000/svg">
<path d="M19.2708 8.62152C19.2708 4.50632 16.0407 1.17032 12.0561 1.17032C8.07153 1.17032 4.84137 4.50637 4.84137 8.62152C4.84137 10.4825 5.50198 12.184 6.59412 13.4898H6.59407L8.17217 16.3504C8.58434 17.1135 8.73734 17.6063 9.42804 17.6063H14.5737C15.2644 17.6063 15.4677 17.0874 15.8296 16.3504L17.5181 13.4898H17.518C18.6102 12.184 19.2708 10.4825 19.2708 8.62152Z" fill="#FFE46A"/>
<path d="M5.28771 9.52898C5.28771 5.27643 8.49293 1.76174 12.6539 1.1984C12.4463 1.17985 12.238 1.17048 12.0296 1.17032C8.04504 1.17032 4.81488 4.50637 4.81488 8.62152C4.81488 9.97574 5.16499 11.2453 5.77638 12.3396C5.45997 11.4607 5.28771 10.5147 5.28771 9.52898Z" fill="#FFF0B7"/>
<path d="M19.2709 8.63746C19.2709 7.16348 18.8563 5.78957 18.1413 4.63303C18.2944 5.23697 18.3718 5.85761 18.3718 6.48065C18.3718 11.3769 13.6309 15.3645 7.70862 15.526L8.17221 16.3664C8.58438 17.1295 8.73738 17.6223 9.42809 17.6223H14.5737C15.2645 17.6223 15.4677 17.1034 15.8296 16.3664L17.5181 13.5058H17.5181C18.6102 12.1999 19.2709 10.4984 19.2709 8.63746Z" fill="#FFDA00"/>
<path d="M15.0893 9.90014C15.0963 9.894 15.1032 9.88837 15.1102 9.88162C15.2409 9.75661 15.3484 9.5572 15.2584 9.37223C14.8891 8.61398 13.7598 8.37342 12.937 8.62453C12.8953 8.63722 12.8549 8.65104 12.8156 8.66601C12.3674 8.40431 11.8109 8.3414 11.3156 8.49872C11.2569 8.51725 11.1994 8.53906 11.1432 8.56406C10.872 8.40562 10.5548 8.32659 10.2388 8.35715C9.57728 8.42114 9.00246 8.95762 8.88855 9.61115L8.83643 9.6434C9.28722 10.3719 10.4738 12.4592 10.5498 13.3575C10.6457 14.4906 10.5499 17.5665 10.5489 17.5974L11.1111 17.6152C11.1152 17.4876 11.2089 14.4756 11.1102 13.31C11.0663 12.7903 10.7483 11.962 10.1651 10.8481C9.89285 10.3282 9.62857 9.87169 9.46858 9.60234C9.57921 9.24394 9.91905 8.95322 10.2929 8.91708C10.4068 8.90606 10.5223 8.91881 10.6328 8.95125C10.5912 9.00451 10.5548 9.06161 10.5241 9.12178C10.3344 9.49373 10.4136 9.96075 10.7084 10.2082C10.883 10.3546 11.1367 10.4086 11.3706 10.3488C11.5885 10.2931 11.7568 10.1499 11.8325 9.95601C11.9006 9.78173 11.8948 9.58055 11.8153 9.35808C11.7693 9.2301 11.7054 9.10929 11.6255 8.99925C11.8378 8.95834 12.0569 8.97032 12.2635 9.03412C12.1831 9.1267 12.1216 9.22973 12.0811 9.34144C11.9947 9.58054 12.0329 9.8647 12.1809 10.0831C12.3084 10.2713 12.5022 10.3832 12.7128 10.3902C12.7199 10.3904 12.7269 10.3905 12.7339 10.3905C12.9183 10.3905 13.0934 10.3112 13.229 10.1657C13.3882 9.99473 13.4693 9.7574 13.4457 9.53081C13.4308 9.38676 13.3796 9.24586 13.2971 9.11517C13.8706 9.01097 14.4317 9.20475 14.6744 9.49889C14.5279 9.74264 14.2271 10.254 13.916 10.8482C13.3329 11.9621 13.0148 12.7905 12.9708 13.3101C12.8722 14.4757 12.966 17.4877 12.97 17.6153L13.5322 17.5975C13.5312 17.5666 13.4354 14.4909 13.5313 13.3575C13.5997 12.5489 14.5678 10.7773 15.0893 9.90014ZM11.3085 9.7515C11.2954 9.78506 11.2461 9.80001 11.2313 9.80381C11.1727 9.81876 11.1063 9.80784 11.0699 9.77733C10.9755 9.69806 10.9549 9.51487 11.0251 9.37739C11.0481 9.33311 11.0773 9.29234 11.1118 9.25631C11.1873 9.342 11.2473 9.44034 11.2856 9.54731C11.3167 9.6345 11.3251 9.70898 11.3085 9.7515ZM12.8174 9.78215C12.8009 9.79973 12.7675 9.82865 12.7312 9.8279C12.6922 9.82664 12.6614 9.78951 12.6464 9.76748C12.5999 9.69872 12.5849 9.60215 12.6101 9.53269C12.639 9.45253 12.6949 9.38695 12.7602 9.33417C12.8328 9.41625 12.8774 9.50451 12.8862 9.58889C12.8929 9.65315 12.8652 9.73078 12.8174 9.78215Z" fill="#FAAF63"/>
<path d="M14.8093 18.8766H9.27643C8.96705 18.8766 8.71393 19.1297 8.71393 19.4391V19.7652C8.71393 20.0746 8.96705 20.3277 9.27643 20.3277H11.0634C10.5306 20.526 9.96797 20.9973 9.96797 21.5439V21.7633C10.3956 22.244 10.7939 23.0796 11.5524 23.0796H12.5785C13.1761 23.0796 13.6006 22.4345 14.1177 21.7633V21.5439C14.1177 20.9973 13.581 20.526 13.0608 20.3277H14.8093C15.1187 20.3277 15.3718 20.0746 15.3718 19.7652V19.4391C15.3718 19.1297 15.1187 18.8766 14.8093 18.8766Z" fill="#6B83A5"/>
<path d="M15.2065 18.8766H8.87921C8.56984 18.8766 8.31671 18.6235 8.31671 18.3141V17.988C8.31671 17.6786 8.56984 17.4255 8.87921 17.4255H15.2065C15.5159 17.4255 15.769 17.6786 15.769 17.988V18.3141C15.769 18.6235 15.5159 18.8766 15.2065 18.8766ZM14.8781 21.2164V20.8903C14.8781 20.5809 14.625 20.3278 14.3156 20.3278H9.77016C9.46079 20.3278 9.20766 20.5809 9.20766 20.8903V21.2164C9.20766 21.5258 9.46079 21.7789 9.77016 21.7789H14.3156C14.625 21.7789 14.8781 21.5258 14.8781 21.2164Z" fill="#ABBDDB"/>
</svg>
