<svg width="20" height="20" viewBox="0 0 20 20" fill="none" xmlns="http://www.w3.org/2000/svg">
<path d="M13.1067 3.23664C14.3017 2.03664 16.05 2.01164 17.0184 2.98331C17.9884 3.95664 17.9617 5.71664 16.7659 6.91664L14.7459 8.94414C14.6288 9.06161 14.5633 9.22075 14.5636 9.38657C14.5639 9.55238 14.6301 9.71128 14.7475 9.82831C14.865 9.94533 15.0241 10.0109 15.19 10.0106C15.3558 10.0103 15.5147 9.94411 15.6317 9.82664L17.6517 7.79914C19.2434 6.19997 19.4434 3.64747 17.9042 2.10081C16.3625 0.553306 13.815 0.754972 12.2209 2.35414L8.18169 6.40997C6.58836 8.00914 6.38836 10.5616 7.92919 12.1075C7.9863 12.169 8.05521 12.2184 8.13181 12.2527C8.20841 12.287 8.29113 12.3055 8.37504 12.3071C8.45896 12.3088 8.54234 12.2935 8.62022 12.2622C8.6981 12.2309 8.76888 12.1842 8.82834 12.125C8.8878 12.0658 8.93472 11.9952 8.9663 11.9174C8.99788 11.8396 9.01348 11.7563 9.01216 11.6724C9.01084 11.5885 8.99263 11.5057 8.95862 11.429C8.9246 11.3522 8.87549 11.2831 8.81419 11.2258C7.84503 10.2525 7.87086 8.49247 9.06669 7.29247L13.1067 3.23664Z" fill="#005FB8"/>
<path opacity="0.5" d="M12.0708 7.89165C11.9537 7.77419 11.7947 7.70806 11.6288 7.70783C11.4629 7.70759 11.3037 7.77327 11.1863 7.8904C11.0688 8.00754 11.0027 8.16655 11.0024 8.33244C11.0022 8.49833 11.0679 8.65752 11.185 8.77499C12.155 9.74832 12.1283 11.5075 10.9325 12.7083L6.89168 16.7633C5.69668 17.9633 3.94834 17.9883 2.98001 17.0167C2.01084 16.0433 2.03668 14.2833 3.23251 13.0833L5.25251 11.0558C5.31212 10.9981 5.35963 10.929 5.39227 10.8528C5.42491 10.7765 5.44204 10.6944 5.44264 10.6114C5.44324 10.5284 5.42731 10.4462 5.39577 10.3694C5.36424 10.2927 5.31773 10.2229 5.25897 10.1643C5.20021 10.1057 5.13036 10.0594 5.05351 10.0281C4.97666 9.9968 4.89434 9.9811 4.81136 9.98194C4.72837 9.98277 4.64639 10.0001 4.57018 10.033C4.49398 10.0658 4.42508 10.1136 4.36751 10.1733L2.34751 12.2008C0.755009 13.8 0.555009 16.3525 2.09584 17.9C3.63751 19.4483 6.18501 19.2458 7.77834 17.6467L11.8183 13.5908C13.41 11.9925 13.61 9.43915 12.0708 7.89332" fill="#005FB8"/>
</svg>
